<svg xmlns="http://www.w3.org/2000/svg" width="35" height="55" fill="none" viewBox="0 0 35 55"><path fill="#fff" d="M22.1368 53.6355C25.0958 52.8197 27.746 51.2366 29.8583 49.1244C33.0288 45.9538 34.9956 41.5793 34.9956 36.7639V17.4978C34.9956 12.6824 33.0288 8.30793 29.8583 5.13733C26.6877 1.96674 22.3132 0 17.4978 0C12.6868 0 8.30792 1.96674 5.13733 5.13733C1.96674 8.30793 0 12.6868 0 17.4978V36.7595C0 41.5749 1.96674 45.9494 5.13733 49.1199C7.60237 51.585 10.7906 53.3224 14.3492 53.9751C16.5012 54.3719 20.1524 54.1823 22.1368 53.6355ZM17.2994 40.5959C19.1294 40.5959 20.6287 39.0966 20.6287 37.2666V33.8358C20.6287 32.0058 19.1294 30.5065 17.2994 30.5065C15.4693 30.5065 13.97 32.0058 13.97 33.8358V37.2666C13.97 39.0966 15.4649 40.5959 17.2994 40.5959ZM26.9346 46.2007C24.5137 48.6216 21.1711 50.1298 17.4978 50.1298C13.8245 50.1298 10.4863 48.6261 8.06098 46.2007C5.64004 43.7798 4.13191 40.4372 4.13191 36.7639V17.4978C4.13191 13.8245 5.63563 10.4863 8.06098 8.06098C10.4819 5.64004 13.8245 4.13191 17.4978 4.13191C21.1711 4.13191 24.5093 5.63563 26.9346 8.06098C29.3555 10.4819 30.8637 13.8245 30.8637 17.4978V36.7595C30.8637 40.4372 29.36 43.7754 26.9346 46.2007Z"/></svg>